<mxfile host="app.diagrams.net" agent="Mozilla/5.0 (Windows NT 10.0; Win64; x64; rv:139.0) Gecko/20100101 Firefox/139.0" version="27.1.6" pages="2">
  <diagram name="Page-1" id="g64pxrhBNDNIx0skFVrr">
    <mxGraphModel dx="1429" dy="856" grid="1" gridSize="10" guides="1" tooltips="1" connect="1" arrows="1" fold="1" page="1" pageScale="1" pageWidth="3300" pageHeight="4681" math="0" shadow="0">
      <root>
        <mxCell id="0" />
        <mxCell id="1" parent="0" />
        <mxCell id="d59_CtU8dIsshW9g-4oL-3" style="edgeStyle=orthogonalEdgeStyle;rounded=0;orthogonalLoop=1;jettySize=auto;html=1;exitX=1;exitY=0.5;exitDx=0;exitDy=0;entryX=0;entryY=0.5;entryDx=0;entryDy=0;" edge="1" parent="1" source="d59_CtU8dIsshW9g-4oL-1" target="d59_CtU8dIsshW9g-4oL-2">
          <mxGeometry relative="1" as="geometry" />
        </mxCell>
        <mxCell id="d59_CtU8dIsshW9g-4oL-1" value="data:image&#xa;Primarily Ventilation-&#xa;Perfusion Scans and&#xa;Chest X-rays" style="rectangle;fillColor=#fff2cc;strokeColor=#d6b656;" name="data" vertex="1" parent="1">
          <mxGeometry x="340" y="230" width="100" height="50" as="geometry" />
        </mxCell>
        <mxCell id="d59_CtU8dIsshW9g-4oL-5" style="edgeStyle=orthogonalEdgeStyle;rounded=0;orthogonalLoop=1;jettySize=auto;html=1;exitX=1;exitY=0.5;exitDx=0;exitDy=0;entryX=0.5;entryY=0;entryDx=0;entryDy=0;" edge="1" parent="1" source="d59_CtU8dIsshW9g-4oL-2" target="d59_CtU8dIsshW9g-4oL-4">
          <mxGeometry relative="1" as="geometry" />
        </mxCell>
        <mxCell id="d59_CtU8dIsshW9g-4oL-2" value="transform" style="rounded=1;whiteSpace=wrap;html=1;arcSize=50;fillColor=#f8cecc;strokeColor=#b85450;" name="transform" vertex="1" parent="1">
          <mxGeometry x="520" y="230" width="100" height="50" as="geometry" />
        </mxCell>
        <mxCell id="d59_CtU8dIsshW9g-4oL-7" style="edgeStyle=orthogonalEdgeStyle;rounded=0;orthogonalLoop=1;jettySize=auto;html=1;exitX=0.5;exitY=1;exitDx=0;exitDy=0;entryX=0.5;entryY=0;entryDx=0;entryDy=0;" edge="1" parent="1" source="d59_CtU8dIsshW9g-4oL-4" target="d59_CtU8dIsshW9g-4oL-6">
          <mxGeometry relative="1" as="geometry" />
        </mxCell>
        <mxCell id="d59_CtU8dIsshW9g-4oL-4" value="data:numeric&#xa;Structured Input&#xa;Vector" style="rectangle;fillColor=#fff2cc;strokeColor=#d6b656;" name="data" vertex="1" parent="1">
          <mxGeometry x="650" y="330" width="100" height="50" as="geometry" />
        </mxCell>
        <mxCell id="d59_CtU8dIsshW9g-4oL-19" style="edgeStyle=orthogonalEdgeStyle;rounded=0;orthogonalLoop=1;jettySize=auto;html=1;exitX=0;exitY=0.5;exitDx=0;exitDy=0;entryX=0.5;entryY=0;entryDx=0;entryDy=0;" edge="1" parent="1" source="d59_CtU8dIsshW9g-4oL-6" target="d59_CtU8dIsshW9g-4oL-18">
          <mxGeometry relative="1" as="geometry" />
        </mxCell>
        <mxCell id="d59_CtU8dIsshW9g-4oL-6" value="transform" style="rounded=1;whiteSpace=wrap;html=1;arcSize=50;fillColor=#f8cecc;strokeColor=#b85450;" name="transform" vertex="1" parent="1">
          <mxGeometry x="650" y="460" width="100" height="50" as="geometry" />
        </mxCell>
        <mxCell id="d59_CtU8dIsshW9g-4oL-9" style="edgeStyle=orthogonalEdgeStyle;rounded=0;orthogonalLoop=1;jettySize=auto;html=1;exitX=0;exitY=0.5;exitDx=0;exitDy=0;entryX=1;entryY=0.5;entryDx=0;entryDy=0;" edge="1" parent="1" source="d59_CtU8dIsshW9g-4oL-8" target="d59_CtU8dIsshW9g-4oL-6">
          <mxGeometry relative="1" as="geometry" />
        </mxCell>
        <mxCell id="d59_CtU8dIsshW9g-4oL-8" value="symbol&#xa;Diagnostic Rules" style="rectangle;fillColor=#dae8fc;strokeColor=#6c8ebf;" name="symbol" vertex="1" parent="1">
          <mxGeometry x="830" y="460" width="100" height="50" as="geometry" />
        </mxCell>
        <mxCell id="d59_CtU8dIsshW9g-4oL-10" value="generate:engineer" style="rounded=1;whiteSpace=wrap;html=1;arcSize=50;fillColor=#e1d5e7;strokeColor=#9673a6;" name="generate:engineer" vertex="1" parent="1">
          <mxGeometry x="1010" y="460" width="100" height="50" as="geometry" />
        </mxCell>
        <mxCell id="d59_CtU8dIsshW9g-4oL-12" value="&lt;div&gt;error&lt;/div&gt;&lt;div&gt;&amp;lt;--&lt;/div&gt;" style="text;html=1;align=center;verticalAlign=middle;whiteSpace=wrap;rounded=0;dashed=1;fillColor=#f5f5f5;fontColor=#333333;strokeColor=#666666;strokeWidth=2;" name="text" vertex="1" parent="1">
          <mxGeometry x="930" y="470" width="80" height="30" as="geometry" />
        </mxCell>
        <mxCell id="d59_CtU8dIsshW9g-4oL-14" style="edgeStyle=orthogonalEdgeStyle;rounded=0;orthogonalLoop=1;jettySize=auto;html=1;exitX=0.5;exitY=0;exitDx=0;exitDy=0;entryX=0.5;entryY=1;entryDx=0;entryDy=0;" edge="1" parent="1" source="d59_CtU8dIsshW9g-4oL-13" target="d59_CtU8dIsshW9g-4oL-10">
          <mxGeometry relative="1" as="geometry" />
        </mxCell>
        <mxCell id="d59_CtU8dIsshW9g-4oL-13" value="actor&#xa;Radiologists" style="triangle;fillColor=#ffe6cc;strokeColor=#d79b00;" name="actor" vertex="1" parent="1">
          <mxGeometry x="1010" y="570" width="100" height="50" as="geometry" />
        </mxCell>
        <mxCell id="d59_CtU8dIsshW9g-4oL-15" value="symbol&#xa;PIOPED&#xa;Diagnostic Rules" style="rectangle;fillColor=#dae8fc;strokeColor=#6c8ebf;" name="symbol" vertex="1" parent="1">
          <mxGeometry x="1190" y="460" width="100" height="50" as="geometry" />
        </mxCell>
        <mxCell id="d59_CtU8dIsshW9g-4oL-17" value="&lt;div&gt;error&lt;/div&gt;&lt;div&gt;&amp;lt;--&lt;/div&gt;" style="text;html=1;align=center;verticalAlign=middle;whiteSpace=wrap;rounded=0;dashed=1;fillColor=#f5f5f5;fontColor=#333333;strokeColor=#666666;strokeWidth=2;" name="text" vertex="1" parent="1">
          <mxGeometry x="1110" y="470" width="80" height="30" as="geometry" />
        </mxCell>
        <mxCell id="d59_CtU8dIsshW9g-4oL-21" style="edgeStyle=orthogonalEdgeStyle;rounded=0;orthogonalLoop=1;jettySize=auto;html=1;exitX=0.5;exitY=1;exitDx=0;exitDy=0;entryX=0.5;entryY=0;entryDx=0;entryDy=0;" edge="1" parent="1" source="d59_CtU8dIsshW9g-4oL-18" target="d59_CtU8dIsshW9g-4oL-20">
          <mxGeometry relative="1" as="geometry" />
        </mxCell>
        <mxCell id="d59_CtU8dIsshW9g-4oL-18" value="data:numeric&#xa;Modified Input&#xa;Vector" style="rectangle;fillColor=#fff2cc;strokeColor=#d6b656;" name="data" vertex="1" parent="1">
          <mxGeometry x="520" y="570" width="100" height="50" as="geometry" />
        </mxCell>
        <mxCell id="d59_CtU8dIsshW9g-4oL-23" style="edgeStyle=orthogonalEdgeStyle;rounded=0;orthogonalLoop=1;jettySize=auto;html=1;exitX=0.5;exitY=1;exitDx=0;exitDy=0;entryX=0.5;entryY=0;entryDx=0;entryDy=0;" edge="1" parent="1" source="d59_CtU8dIsshW9g-4oL-20" target="d59_CtU8dIsshW9g-4oL-22">
          <mxGeometry relative="1" as="geometry" />
        </mxCell>
        <mxCell id="d59_CtU8dIsshW9g-4oL-20" value="generate:train" style="rounded=1;whiteSpace=wrap;html=1;arcSize=50;fillColor=#e1d5e7;strokeColor=#9673a6;" name="generate:train" vertex="1" parent="1">
          <mxGeometry x="520" y="700" width="100" height="50" as="geometry" />
        </mxCell>
        <mxCell id="d59_CtU8dIsshW9g-4oL-25" style="edgeStyle=orthogonalEdgeStyle;rounded=0;orthogonalLoop=1;jettySize=auto;html=1;entryX=0.5;entryY=0;entryDx=0;entryDy=0;" edge="1" parent="1" source="d59_CtU8dIsshW9g-4oL-22" target="d59_CtU8dIsshW9g-4oL-24">
          <mxGeometry relative="1" as="geometry" />
        </mxCell>
        <mxCell id="d59_CtU8dIsshW9g-4oL-22" value="model:hybrid&#xa;MLP" style="shape=hexagon;perimeter=hexagonPerimeter2;fillColor=#b0e3e6;strokeColor=#0e8088;" name="model" vertex="1" parent="1">
          <mxGeometry x="510" y="830" width="120" height="50" as="geometry" />
        </mxCell>
        <mxCell id="d59_CtU8dIsshW9g-4oL-29" style="edgeStyle=orthogonalEdgeStyle;rounded=0;orthogonalLoop=1;jettySize=auto;html=1;exitX=0.5;exitY=1;exitDx=0;exitDy=0;entryX=0.5;entryY=0;entryDx=0;entryDy=0;" edge="1" parent="1" source="d59_CtU8dIsshW9g-4oL-24" target="d59_CtU8dIsshW9g-4oL-28">
          <mxGeometry relative="1" as="geometry" />
        </mxCell>
        <mxCell id="d59_CtU8dIsshW9g-4oL-24" value="infer:deduce" style="rounded=1;whiteSpace=wrap;html=1;arcSize=50;fillColor=#bac8d3;strokeColor=#23445d;" name="infer:deduce" vertex="1" parent="1">
          <mxGeometry x="520" y="960" width="100" height="50" as="geometry" />
        </mxCell>
        <mxCell id="d59_CtU8dIsshW9g-4oL-27" style="edgeStyle=orthogonalEdgeStyle;rounded=0;orthogonalLoop=1;jettySize=auto;html=1;exitX=0;exitY=0.5;exitDx=0;exitDy=0;entryX=1;entryY=0.5;entryDx=0;entryDy=0;" edge="1" parent="1" source="d59_CtU8dIsshW9g-4oL-26" target="d59_CtU8dIsshW9g-4oL-24">
          <mxGeometry relative="1" as="geometry" />
        </mxCell>
        <mxCell id="d59_CtU8dIsshW9g-4oL-26" value="data:numeric&#xa;Patient Modified&#xa;Input Vector From&#xa;Image" style="rectangle;fillColor=#fff2cc;strokeColor=#d6b656;" name="data" vertex="1" parent="1">
          <mxGeometry x="700" y="960" width="100" height="50" as="geometry" />
        </mxCell>
        <mxCell id="d59_CtU8dIsshW9g-4oL-28" value="symbol&#xa;Pulmonary&#xa;Embolism Probability" style="rectangle;fillColor=#dae8fc;strokeColor=#6c8ebf;" name="symbol" vertex="1" parent="1">
          <mxGeometry x="520" y="1090" width="100" height="50" as="geometry" />
        </mxCell>
      </root>
    </mxGraphModel>
  </diagram>
  <diagram name="Copy of Page-1" id="q9kg5e2dg5QauluVXPET">
    <mxGraphModel dx="1429" dy="856" grid="1" gridSize="10" guides="1" tooltips="1" connect="1" arrows="1" fold="1" page="1" pageScale="1" pageWidth="3300" pageHeight="4681" math="0" shadow="0">
      <root>
        <mxCell id="5ZxGYaT7h80rsGaEAa4u-0" />
        <mxCell id="5ZxGYaT7h80rsGaEAa4u-1" parent="5ZxGYaT7h80rsGaEAa4u-0" />
        <mxCell id="5ZxGYaT7h80rsGaEAa4u-2" style="edgeStyle=orthogonalEdgeStyle;rounded=0;orthogonalLoop=1;jettySize=auto;html=1;exitX=1;exitY=0.5;exitDx=0;exitDy=0;entryX=0;entryY=0.5;entryDx=0;entryDy=0;" parent="5ZxGYaT7h80rsGaEAa4u-1" source="5ZxGYaT7h80rsGaEAa4u-3" target="5ZxGYaT7h80rsGaEAa4u-5" edge="1">
          <mxGeometry relative="1" as="geometry" />
        </mxCell>
        <mxCell id="5ZxGYaT7h80rsGaEAa4u-3" value="data:image&#xa;Primarily Ventilation-&#xa;Perfusion Scans and&#xa;Chest X-rays" style="rectangle;fillColor=#fff2cc;strokeColor=#d6b656;" parent="5ZxGYaT7h80rsGaEAa4u-1" name="data" vertex="1">
          <mxGeometry x="340" y="230" width="100" height="50" as="geometry" />
        </mxCell>
        <mxCell id="5ZxGYaT7h80rsGaEAa4u-4" style="edgeStyle=orthogonalEdgeStyle;rounded=0;orthogonalLoop=1;jettySize=auto;html=1;exitX=1;exitY=0.5;exitDx=0;exitDy=0;entryX=0.5;entryY=0;entryDx=0;entryDy=0;" parent="5ZxGYaT7h80rsGaEAa4u-1" source="5ZxGYaT7h80rsGaEAa4u-5" target="5ZxGYaT7h80rsGaEAa4u-7" edge="1">
          <mxGeometry relative="1" as="geometry" />
        </mxCell>
        <mxCell id="5ZxGYaT7h80rsGaEAa4u-5" value="transform" style="rounded=1;whiteSpace=wrap;html=1;arcSize=50;fillColor=#f8cecc;strokeColor=#b85450;" parent="5ZxGYaT7h80rsGaEAa4u-1" name="transform" vertex="1">
          <mxGeometry x="520" y="230" width="100" height="50" as="geometry" />
        </mxCell>
        <mxCell id="5ZxGYaT7h80rsGaEAa4u-6" style="edgeStyle=orthogonalEdgeStyle;rounded=0;orthogonalLoop=1;jettySize=auto;html=1;exitX=0.5;exitY=1;exitDx=0;exitDy=0;entryX=0.5;entryY=0;entryDx=0;entryDy=0;" parent="5ZxGYaT7h80rsGaEAa4u-1" source="5ZxGYaT7h80rsGaEAa4u-7" target="5ZxGYaT7h80rsGaEAa4u-9" edge="1">
          <mxGeometry relative="1" as="geometry" />
        </mxCell>
        <mxCell id="5ZxGYaT7h80rsGaEAa4u-7" value="data:numeric&#xa;Structured Input&#xa;Vector" style="rectangle;fillColor=#fff2cc;strokeColor=#d6b656;" parent="5ZxGYaT7h80rsGaEAa4u-1" name="data" vertex="1">
          <mxGeometry x="650" y="330" width="100" height="50" as="geometry" />
        </mxCell>
        <mxCell id="5ZxGYaT7h80rsGaEAa4u-8" style="edgeStyle=orthogonalEdgeStyle;rounded=0;orthogonalLoop=1;jettySize=auto;html=1;exitX=0;exitY=0.5;exitDx=0;exitDy=0;entryX=0.5;entryY=0;entryDx=0;entryDy=0;" parent="5ZxGYaT7h80rsGaEAa4u-1" source="5ZxGYaT7h80rsGaEAa4u-9" target="5ZxGYaT7h80rsGaEAa4u-19" edge="1">
          <mxGeometry relative="1" as="geometry" />
        </mxCell>
        <mxCell id="5ZxGYaT7h80rsGaEAa4u-9" value="transform" style="rounded=1;whiteSpace=wrap;html=1;arcSize=50;fillColor=#f8cecc;strokeColor=#b85450;" parent="5ZxGYaT7h80rsGaEAa4u-1" name="transform" vertex="1">
          <mxGeometry x="650" y="460" width="100" height="50" as="geometry" />
        </mxCell>
        <mxCell id="5ZxGYaT7h80rsGaEAa4u-10" style="edgeStyle=orthogonalEdgeStyle;rounded=0;orthogonalLoop=1;jettySize=auto;html=1;exitX=0;exitY=0.5;exitDx=0;exitDy=0;entryX=1;entryY=0.5;entryDx=0;entryDy=0;" parent="5ZxGYaT7h80rsGaEAa4u-1" source="5ZxGYaT7h80rsGaEAa4u-11" target="5ZxGYaT7h80rsGaEAa4u-9" edge="1">
          <mxGeometry relative="1" as="geometry" />
        </mxCell>
        <mxCell id="5ZxGYaT7h80rsGaEAa4u-11" value="symbol&#xa;Diagnostic Rules" style="rectangle;fillColor=#dae8fc;strokeColor=#6c8ebf;" parent="5ZxGYaT7h80rsGaEAa4u-1" name="symbol" vertex="1">
          <mxGeometry x="830" y="460" width="100" height="50" as="geometry" />
        </mxCell>
        <mxCell id="sT12USktLq0hkYM03E3m-1" style="edgeStyle=orthogonalEdgeStyle;rounded=0;orthogonalLoop=1;jettySize=auto;html=1;exitX=0;exitY=0.5;exitDx=0;exitDy=0;entryX=1;entryY=0.5;entryDx=0;entryDy=0;" parent="5ZxGYaT7h80rsGaEAa4u-1" source="5ZxGYaT7h80rsGaEAa4u-12" target="5ZxGYaT7h80rsGaEAa4u-11" edge="1">
          <mxGeometry relative="1" as="geometry" />
        </mxCell>
        <mxCell id="5ZxGYaT7h80rsGaEAa4u-12" value="generate:engineer" style="rounded=1;whiteSpace=wrap;html=1;arcSize=50;fillColor=#e1d5e7;strokeColor=#9673a6;" parent="5ZxGYaT7h80rsGaEAa4u-1" name="generate:engineer" vertex="1">
          <mxGeometry x="1010" y="460" width="100" height="50" as="geometry" />
        </mxCell>
        <mxCell id="5ZxGYaT7h80rsGaEAa4u-14" style="edgeStyle=orthogonalEdgeStyle;rounded=0;orthogonalLoop=1;jettySize=auto;html=1;exitX=0.5;exitY=0;exitDx=0;exitDy=0;entryX=0.5;entryY=1;entryDx=0;entryDy=0;" parent="5ZxGYaT7h80rsGaEAa4u-1" source="5ZxGYaT7h80rsGaEAa4u-15" target="5ZxGYaT7h80rsGaEAa4u-12" edge="1">
          <mxGeometry relative="1" as="geometry" />
        </mxCell>
        <mxCell id="5ZxGYaT7h80rsGaEAa4u-15" value="actor&#xa;Radiologists" style="triangle;fillColor=#ffe6cc;strokeColor=#d79b00;" parent="5ZxGYaT7h80rsGaEAa4u-1" name="actor" vertex="1">
          <mxGeometry x="1010" y="570" width="100" height="50" as="geometry" />
        </mxCell>
        <mxCell id="sT12USktLq0hkYM03E3m-0" style="edgeStyle=orthogonalEdgeStyle;rounded=0;orthogonalLoop=1;jettySize=auto;html=1;exitX=0;exitY=0.5;exitDx=0;exitDy=0;entryX=1;entryY=0.5;entryDx=0;entryDy=0;" parent="5ZxGYaT7h80rsGaEAa4u-1" source="5ZxGYaT7h80rsGaEAa4u-16" target="5ZxGYaT7h80rsGaEAa4u-12" edge="1">
          <mxGeometry relative="1" as="geometry" />
        </mxCell>
        <mxCell id="5ZxGYaT7h80rsGaEAa4u-16" value="symbol&#xa;PIOPED&#xa;Diagnostic Rules" style="rectangle;fillColor=#dae8fc;strokeColor=#6c8ebf;" parent="5ZxGYaT7h80rsGaEAa4u-1" name="symbol" vertex="1">
          <mxGeometry x="1190" y="460" width="100" height="50" as="geometry" />
        </mxCell>
        <mxCell id="5ZxGYaT7h80rsGaEAa4u-18" style="edgeStyle=orthogonalEdgeStyle;rounded=0;orthogonalLoop=1;jettySize=auto;html=1;exitX=0.5;exitY=1;exitDx=0;exitDy=0;entryX=0.5;entryY=0;entryDx=0;entryDy=0;" parent="5ZxGYaT7h80rsGaEAa4u-1" source="5ZxGYaT7h80rsGaEAa4u-19" target="5ZxGYaT7h80rsGaEAa4u-21" edge="1">
          <mxGeometry relative="1" as="geometry" />
        </mxCell>
        <mxCell id="5ZxGYaT7h80rsGaEAa4u-19" value="data:numeric&#xa;Modified Input&#xa;Vector" style="rectangle;fillColor=#fff2cc;strokeColor=#d6b656;" parent="5ZxGYaT7h80rsGaEAa4u-1" name="data" vertex="1">
          <mxGeometry x="520" y="570" width="100" height="50" as="geometry" />
        </mxCell>
        <mxCell id="5ZxGYaT7h80rsGaEAa4u-20" style="edgeStyle=orthogonalEdgeStyle;rounded=0;orthogonalLoop=1;jettySize=auto;html=1;exitX=0.5;exitY=1;exitDx=0;exitDy=0;entryX=0.5;entryY=0;entryDx=0;entryDy=0;" parent="5ZxGYaT7h80rsGaEAa4u-1" source="5ZxGYaT7h80rsGaEAa4u-21" target="5ZxGYaT7h80rsGaEAa4u-23" edge="1">
          <mxGeometry relative="1" as="geometry" />
        </mxCell>
        <mxCell id="5ZxGYaT7h80rsGaEAa4u-21" value="generate:train" style="rounded=1;whiteSpace=wrap;html=1;arcSize=50;fillColor=#e1d5e7;strokeColor=#9673a6;" parent="5ZxGYaT7h80rsGaEAa4u-1" name="generate:train" vertex="1">
          <mxGeometry x="520" y="700" width="100" height="50" as="geometry" />
        </mxCell>
        <mxCell id="5ZxGYaT7h80rsGaEAa4u-22" style="edgeStyle=orthogonalEdgeStyle;rounded=0;orthogonalLoop=1;jettySize=auto;html=1;entryX=0.5;entryY=0;entryDx=0;entryDy=0;" parent="5ZxGYaT7h80rsGaEAa4u-1" source="5ZxGYaT7h80rsGaEAa4u-23" target="5ZxGYaT7h80rsGaEAa4u-25" edge="1">
          <mxGeometry relative="1" as="geometry" />
        </mxCell>
        <mxCell id="5ZxGYaT7h80rsGaEAa4u-23" value="model:hybrid&#xa;MLP" style="shape=hexagon;perimeter=hexagonPerimeter2;fillColor=#b0e3e6;strokeColor=#0e8088;" parent="5ZxGYaT7h80rsGaEAa4u-1" name="model" vertex="1">
          <mxGeometry x="510" y="830" width="120" height="50" as="geometry" />
        </mxCell>
        <mxCell id="5ZxGYaT7h80rsGaEAa4u-24" style="edgeStyle=orthogonalEdgeStyle;rounded=0;orthogonalLoop=1;jettySize=auto;html=1;exitX=0.5;exitY=1;exitDx=0;exitDy=0;entryX=0.5;entryY=0;entryDx=0;entryDy=0;" parent="5ZxGYaT7h80rsGaEAa4u-1" source="5ZxGYaT7h80rsGaEAa4u-25" target="5ZxGYaT7h80rsGaEAa4u-28" edge="1">
          <mxGeometry relative="1" as="geometry" />
        </mxCell>
        <mxCell id="5ZxGYaT7h80rsGaEAa4u-25" value="infer:deduce" style="rounded=1;whiteSpace=wrap;html=1;arcSize=50;fillColor=#bac8d3;strokeColor=#23445d;" parent="5ZxGYaT7h80rsGaEAa4u-1" name="infer:deduce" vertex="1">
          <mxGeometry x="520" y="960" width="100" height="50" as="geometry" />
        </mxCell>
        <mxCell id="5ZxGYaT7h80rsGaEAa4u-26" style="edgeStyle=orthogonalEdgeStyle;rounded=0;orthogonalLoop=1;jettySize=auto;html=1;exitX=0;exitY=0.5;exitDx=0;exitDy=0;entryX=1;entryY=0.5;entryDx=0;entryDy=0;" parent="5ZxGYaT7h80rsGaEAa4u-1" source="5ZxGYaT7h80rsGaEAa4u-27" target="5ZxGYaT7h80rsGaEAa4u-25" edge="1">
          <mxGeometry relative="1" as="geometry" />
        </mxCell>
        <mxCell id="5ZxGYaT7h80rsGaEAa4u-27" value="data:numeric&#xa;Patient Modified&#xa;Input Vector From&#xa;Image" style="rectangle;fillColor=#fff2cc;strokeColor=#d6b656;" parent="5ZxGYaT7h80rsGaEAa4u-1" name="data" vertex="1">
          <mxGeometry x="700" y="960" width="100" height="50" as="geometry" />
        </mxCell>
        <mxCell id="5ZxGYaT7h80rsGaEAa4u-28" value="symbol&#xa;Pulmonary&#xa;Embolism Probability" style="rectangle;fillColor=#dae8fc;strokeColor=#6c8ebf;" parent="5ZxGYaT7h80rsGaEAa4u-1" name="symbol" vertex="1">
          <mxGeometry x="520" y="1090" width="100" height="50" as="geometry" />
        </mxCell>
      </root>
    </mxGraphModel>
  </diagram>
</mxfile>
